<mxfile host="app.diagrams.net" modified="2023-06-16T19:02:52.660Z" agent="Mozilla/5.0 (Windows NT 10.0; Win64; x64) AppleWebKit/537.36 (KHTML, like Gecko) Chrome/114.0.0.0 Safari/537.36" etag="Zq7RrtgTHYd_odruqclX" version="21.4.0" type="device">
  <diagram name="Halaman-1" id="XM-jZVYe0Cp3uiqvrEMy">
    <mxGraphModel dx="887" dy="478" grid="1" gridSize="10" guides="1" tooltips="1" connect="1" arrows="1" fold="1" page="1" pageScale="1" pageWidth="827" pageHeight="1169" math="0" shadow="0">
      <root>
        <mxCell id="0" />
        <mxCell id="1" parent="0" />
        <mxCell id="liazVS2mMWleRVOy0ssC-4" style="edgeStyle=orthogonalEdgeStyle;rounded=0;orthogonalLoop=1;jettySize=auto;html=1;entryX=0.5;entryY=0;entryDx=0;entryDy=0;" edge="1" parent="1" source="liazVS2mMWleRVOy0ssC-1" target="liazVS2mMWleRVOy0ssC-2">
          <mxGeometry relative="1" as="geometry" />
        </mxCell>
        <mxCell id="liazVS2mMWleRVOy0ssC-1" value="" style="ellipse;whiteSpace=wrap;html=1;" vertex="1" parent="1">
          <mxGeometry x="330" y="36" width="120" height="80" as="geometry" />
        </mxCell>
        <mxCell id="liazVS2mMWleRVOy0ssC-7" style="edgeStyle=orthogonalEdgeStyle;rounded=0;orthogonalLoop=1;jettySize=auto;html=1;exitX=0.5;exitY=1;exitDx=0;exitDy=0;entryX=0.5;entryY=0;entryDx=0;entryDy=0;" edge="1" parent="1" source="liazVS2mMWleRVOy0ssC-2" target="liazVS2mMWleRVOy0ssC-5">
          <mxGeometry relative="1" as="geometry" />
        </mxCell>
        <mxCell id="liazVS2mMWleRVOy0ssC-2" value="" style="shape=parallelogram;perimeter=parallelogramPerimeter;whiteSpace=wrap;html=1;fixedSize=1;" vertex="1" parent="1">
          <mxGeometry x="330" y="150" width="120" height="60" as="geometry" />
        </mxCell>
        <mxCell id="liazVS2mMWleRVOy0ssC-26" style="edgeStyle=orthogonalEdgeStyle;rounded=0;orthogonalLoop=1;jettySize=auto;html=1;exitX=0.5;exitY=1;exitDx=0;exitDy=0;" edge="1" parent="1" source="liazVS2mMWleRVOy0ssC-5" target="liazVS2mMWleRVOy0ssC-6">
          <mxGeometry relative="1" as="geometry" />
        </mxCell>
        <mxCell id="liazVS2mMWleRVOy0ssC-5" value="" style="shape=parallelogram;perimeter=parallelogramPerimeter;whiteSpace=wrap;html=1;fixedSize=1;" vertex="1" parent="1">
          <mxGeometry x="330" y="220" width="120" height="60" as="geometry" />
        </mxCell>
        <mxCell id="liazVS2mMWleRVOy0ssC-11" style="edgeStyle=orthogonalEdgeStyle;rounded=0;orthogonalLoop=1;jettySize=auto;html=1;entryX=0;entryY=0.5;entryDx=0;entryDy=0;" edge="1" parent="1" source="liazVS2mMWleRVOy0ssC-6" target="liazVS2mMWleRVOy0ssC-9">
          <mxGeometry relative="1" as="geometry" />
        </mxCell>
        <mxCell id="liazVS2mMWleRVOy0ssC-6" value="bilangan kedua&amp;nbsp;&lt;br&gt;GET b" style="shape=parallelogram;perimeter=parallelogramPerimeter;whiteSpace=wrap;html=1;fixedSize=1;" vertex="1" parent="1">
          <mxGeometry x="300.62" y="305" width="120" height="60" as="geometry" />
        </mxCell>
        <mxCell id="liazVS2mMWleRVOy0ssC-14" style="edgeStyle=orthogonalEdgeStyle;rounded=0;orthogonalLoop=1;jettySize=auto;html=1;entryX=0.5;entryY=0;entryDx=0;entryDy=0;" edge="1" parent="1" source="liazVS2mMWleRVOy0ssC-9" target="liazVS2mMWleRVOy0ssC-12">
          <mxGeometry relative="1" as="geometry">
            <mxPoint x="220" y="460" as="targetPoint" />
            <Array as="points">
              <mxPoint x="290" y="410" />
              <mxPoint x="290" y="411" />
              <mxPoint x="220" y="411" />
            </Array>
          </mxGeometry>
        </mxCell>
        <mxCell id="liazVS2mMWleRVOy0ssC-17" style="edgeStyle=orthogonalEdgeStyle;rounded=0;orthogonalLoop=1;jettySize=auto;html=1;entryX=0.5;entryY=1;entryDx=0;entryDy=0;" edge="1" parent="1" target="liazVS2mMWleRVOy0ssC-13">
          <mxGeometry relative="1" as="geometry">
            <mxPoint x="220" y="650" as="targetPoint" />
            <mxPoint x="439.9949999999999" y="411" as="sourcePoint" />
            <Array as="points">
              <mxPoint x="611" y="411" />
              <mxPoint x="611" y="660" />
              <mxPoint x="220" y="660" />
            </Array>
          </mxGeometry>
        </mxCell>
        <mxCell id="liazVS2mMWleRVOy0ssC-9" value="" style="rhombus;whiteSpace=wrap;html=1;rotation=90;" vertex="1" parent="1">
          <mxGeometry x="359.37" y="360" width="61.25" height="100" as="geometry" />
        </mxCell>
        <mxCell id="liazVS2mMWleRVOy0ssC-15" style="edgeStyle=orthogonalEdgeStyle;rounded=0;orthogonalLoop=1;jettySize=auto;html=1;exitX=0.5;exitY=1;exitDx=0;exitDy=0;" edge="1" parent="1" source="liazVS2mMWleRVOy0ssC-12" target="liazVS2mMWleRVOy0ssC-13">
          <mxGeometry relative="1" as="geometry" />
        </mxCell>
        <mxCell id="liazVS2mMWleRVOy0ssC-12" value="" style="rounded=0;whiteSpace=wrap;html=1;" vertex="1" parent="1">
          <mxGeometry x="160" y="490" width="120" height="60" as="geometry" />
        </mxCell>
        <mxCell id="liazVS2mMWleRVOy0ssC-13" value="" style="shape=parallelogram;perimeter=parallelogramPerimeter;whiteSpace=wrap;html=1;fixedSize=1;" vertex="1" parent="1">
          <mxGeometry x="160" y="570" width="120" height="60" as="geometry" />
        </mxCell>
        <mxCell id="liazVS2mMWleRVOy0ssC-16" value="" style="ellipse;whiteSpace=wrap;html=1;" vertex="1" parent="1">
          <mxGeometry x="400" y="711" width="90" height="60" as="geometry" />
        </mxCell>
        <mxCell id="liazVS2mMWleRVOy0ssC-22" value="" style="endArrow=classic;html=1;rounded=0;" edge="1" parent="1">
          <mxGeometry width="50" height="50" relative="1" as="geometry">
            <mxPoint x="440" y="660" as="sourcePoint" />
            <mxPoint x="440" y="710" as="targetPoint" />
          </mxGeometry>
        </mxCell>
        <mxCell id="liazVS2mMWleRVOy0ssC-24" value="Start" style="text;html=1;strokeColor=none;fillColor=none;align=center;verticalAlign=middle;whiteSpace=wrap;rounded=0;" vertex="1" parent="1">
          <mxGeometry x="360" y="61" width="60" height="30" as="geometry" />
        </mxCell>
        <mxCell id="liazVS2mMWleRVOy0ssC-25" value="masukan bilangan pertama ;&quot; GET a" style="text;html=1;strokeColor=none;fillColor=none;align=center;verticalAlign=middle;whiteSpace=wrap;rounded=0;" vertex="1" parent="1">
          <mxGeometry x="360.62" y="165" width="60" height="30" as="geometry" />
        </mxCell>
        <mxCell id="liazVS2mMWleRVOy0ssC-27" value="masukan&lt;br&gt;pilihan operasi&lt;br&gt;GET pil" style="text;html=1;align=center;verticalAlign=middle;resizable=0;points=[];autosize=1;strokeColor=none;fillColor=none;" vertex="1" parent="1">
          <mxGeometry x="340" y="220" width="100" height="60" as="geometry" />
        </mxCell>
        <mxCell id="liazVS2mMWleRVOy0ssC-28" value="masukan&amp;nbsp;" style="text;html=1;align=center;verticalAlign=middle;resizable=0;points=[];autosize=1;strokeColor=none;fillColor=none;" vertex="1" parent="1">
          <mxGeometry x="320.62" y="300" width="80" height="30" as="geometry" />
        </mxCell>
        <mxCell id="liazVS2mMWleRVOy0ssC-29" value="pil = &quot;+&quot;" style="text;html=1;align=center;verticalAlign=middle;resizable=0;points=[];autosize=1;strokeColor=none;fillColor=none;" vertex="1" parent="1">
          <mxGeometry x="360" y="395" width="60" height="30" as="geometry" />
        </mxCell>
        <mxCell id="liazVS2mMWleRVOy0ssC-30" value="yes" style="text;html=1;align=center;verticalAlign=middle;resizable=0;points=[];autosize=1;strokeColor=none;fillColor=none;" vertex="1" parent="1">
          <mxGeometry x="280.62" y="380" width="40" height="30" as="geometry" />
        </mxCell>
        <mxCell id="liazVS2mMWleRVOy0ssC-31" value="no" style="text;html=1;align=center;verticalAlign=middle;resizable=0;points=[];autosize=1;strokeColor=none;fillColor=none;" vertex="1" parent="1">
          <mxGeometry x="480" y="380" width="40" height="30" as="geometry" />
        </mxCell>
        <mxCell id="liazVS2mMWleRVOy0ssC-33" value="penjumlahan a+b" style="text;html=1;align=center;verticalAlign=middle;resizable=0;points=[];autosize=1;strokeColor=none;fillColor=none;" vertex="1" parent="1">
          <mxGeometry x="160" y="505" width="120" height="30" as="geometry" />
        </mxCell>
        <mxCell id="liazVS2mMWleRVOy0ssC-34" value="hasil &lt;br&gt;penjumahan a+b=&lt;br&gt;+penjumlahan" style="text;html=1;align=center;verticalAlign=middle;resizable=0;points=[];autosize=1;strokeColor=none;fillColor=none;" vertex="1" parent="1">
          <mxGeometry x="160.62" y="570" width="120" height="60" as="geometry" />
        </mxCell>
        <mxCell id="liazVS2mMWleRVOy0ssC-38" value="end&lt;br&gt;" style="text;html=1;align=center;verticalAlign=middle;resizable=0;points=[];autosize=1;strokeColor=none;fillColor=none;" vertex="1" parent="1">
          <mxGeometry x="425" y="726" width="40" height="30" as="geometry" />
        </mxCell>
      </root>
    </mxGraphModel>
  </diagram>
</mxfile>
